{
  "asset": {
    "version": "2.0",
    "generator": "THREE.GLTFExporter r178"
  },
  "scenes": [
    {
      "name": "Scene",
      "nodes": [
        0,
        2
      ]
    }
  ],
  "scene": 0,
  "nodes": [
    {
      "matrix": [
        100,
        0,
        0,
        0,
        0,
        100,
        0,
        0,
        0,
        0,
        100,
        0,
        0,
        0,
        0,
        1
      ],
      "name": "洞箫.glb",
      "children": [
        1
      ]
    },
    {
      "matrix": [
        -0.01047178411624583,
        0,
        0.9999451693655121,
        0,
        0,
        1,
        0,
        0,
        -0.9999451693655121,
        0,
        -0.01047178411624583,
        0,
        0,
        0.09060020721479801,
        0,
        1
      ],
      "name": "tripo_node_f34a1252-7e99-43bd-aa52-f17bde2ec29a",
      "extras": {
        "name": "tripo_node_f34a1252-7e99-43bd-aa52-f17bde2ec29a"
      },
      "mesh": 0
    },
    {
      "matrix": [
        1,
        0,
        0,
        0,
        0,
        1,
        0,
        0,
        0,
        0,
        1,
        0,
        5,
        10,
        7.5,
        1
      ],
      "name": "DirectionalLight",
      "extensions": {
        "KHR_lights_punctual": {
          "light": 0
        }
      }
    }
  ],
  "bufferViews": [
    {
      "buffer": 0,
      "byteOffset": 0,
      "byteLength": 320892,
      "target": 34962,
      "byteStride": 12
    },
    {
      "buffer": 0,
      "byteOffset": 320892,
      "byteLength": 213928,
      "target": 34962,
      "byteStride": 8
    },
    {
      "buffer": 0,
      "byteOffset": 534820,
      "byteLength": 293100,
      "target": 34963
    }
  ],
  "buffers": [
    {
      "byteLength": 827920,
      "uri": "data:application/octet-stream;base64,"
    }
  ],
  "accessors": [
    {
      "bufferView": 0,
      "componentType": 5126,
      "count": 26741,
      "max": [
        0.5,
        0.05914386361837387,
        0.04330303519964218
      ],
      "min": [
        -0.5,
        -0.05914802849292755,
        -0.04329323768615723
      ],
      "type": "VEC3"
    },
    {
      "bufferView": 1,
      "componentType": 5126,
      "count": 26741,
      "max": [
        0.999937891960144,
        0.9998946785926819
      ],
      "min": [
        0.00009075552225112915,
        0.03199368715286255
      ],
      "type": "VEC2"
    },
    {
      "bufferView": 2,
      "componentType": 5123,
      "count": 146550,
      "max": [
        26740
      ],
      "min": [
        0
      ],
      "type": "SCALAR"
    }
  ],
  "materials": [
    {
      "pbrMetallicRoughness": {
        "metallicFactor": 1,
        "roughnessFactor": 1,
        "metallicRoughnessTexture": {
          "index": 0,
          "texCoord": 0
        },
        "baseColorTexture": {
          "index": 1,
          "texCoord": 0
        }
      },
      "normalTexture": {
        "index": 2,
        "texCoord": 0
      },
      "name": "tripo_mat_f34a1252-7e99-43bd-aa52-f17bde2ec29a"
    }
  ],
  "textures": [
    {
      "sampler": 0,
      "source": 0,
      "name": "tripo_image_f34a1252-7e99-43bd-aa52-f17bde2ec29a_1"
    },
    {
      "sampler": 1,
      "source": 1,
      "name": "tripo_image_f34a1252-7e99-43bd-aa52-f17bde2ec29a_0"
    },
    {
      "sampler": 2,
      "source": 2,
      "name": "tripo_image_f34a1252-7e99-43bd-aa52-f17bde2ec29a_2"
    }
  ],
  "samplers": [
    {
      "magFilter": 9729,
      "minFilter": 9987,
      "wrapS": 10497,
      "wrapT": 10497
    },
    {
      "magFilter": 9729,
      "minFilter": 9987,
      "wrapS": 10497,
      "wrapT": 10497
    },
    {
      "magFilter": 9729,
      "minFilter": 9987,
      "wrapS": 10497,
      "wrapT": 10497
    }
  ],
  "images": [
    {
      "mimeType": "image/jpeg",
      "uri": "data:image/jpeg;base64,"
    },
    {
      "mimeType": "image/jpeg",
      "uri": "data:image/jpeg;base64,"
    },
    {
      "mimeType": "image/jpeg",
      "uri": "data:image/jpeg;base64,"
    }
  ],
  "meshes": [
    {
      "primitives": [
        {
          "mode": 4,
          "attributes": {
            "POSITION": 0,
            "TEXCOORD_0": 1
          },
          "indices": 2,
          "material": 0
        }
      ]
    }
  ],
  "extensions": {
    "KHR_lights_punctual": {
      "lights": [
        {
          "name": "DirectionalLight",
          "color": [
            1,
            1,
            1
          ],
          "intensity": 1,
          "type": "directional"
        }
      ]
    }
  },
  "extensionsUsed": [
    "KHR_lights_punctual"
  ]
}