{
  "asset": {
    "version": "2.0",
    "generator": "THREE.GLTFExporter r178"
  },
  "scenes": [
    {
      "name": "Scene",
      "nodes": [
        0
      ]
    }
  ],
  "scene": 0,
  "nodes": [
    {
      "matrix": [
        -100,
        3.861724524491336e-15,
        1.1621663476590946e-14,
        0,
        -1.2246467991473532e-14,
        -31.533373762786287,
        -94.89808395924767,
        0,
        0,
        -94.89808395924767,
        31.533373762786287,
        0,
        0,
        15.398181037778187,
        0,
        1
      ],
      "name": "冬不拉.glb",
      "children": [
        1
      ]
    },
    {
      "matrix": [
        1,
        2.451204061479843e-17,
        7.223392867952407e-17,
        0,
        2.3756158067906702e-17,
        0.7997894394049396,
        -0.6002806448789868,
        0,
        -7.248603687216408e-17,
        0.6002806448789868,
        0.7997894394049396,
        0,
        0,
        0,
        0,
        1
      ],
      "name": "tripo_node_a181202a-92e1-4513-941c-a50ab1b290df",
      "extras": {
        "name": "tripo_node_a181202a-92e1-4513-941c-a50ab1b290df"
      },
      "mesh": 0
    }
  ],
  "bufferViews": [
    {
      "buffer": 0,
      "byteOffset": 0,
      "byteLength": 581496,
      "target": 34962,
      "byteStride": 12
    },
    {
      "buffer": 0,
      "byteOffset": 581496,
      "byteLength": 387664,
      "target": 34962,
      "byteStride": 8
    },
    {
      "buffer": 0,
      "byteOffset": 969160,
      "byteLength": 538272,
      "target": 34963
    }
  ],
  "buffers": [
    {
      "byteLength": 1507432,
      "uri": "data:application/octet-stream;base64,"
    }
  ],
  "accessors": [
    {
      "bufferView": 0,
      "componentType": 5126,
      "count": 48458,
      "max": [
        0.14373405277729034,
        0.5,
        0.17717552185058594
      ],
      "min": [
        -0.14372359216213226,
        -0.5,
        -0.17717552185058594
      ],
      "type": "VEC3"
    },
    {
      "bufferView": 1,
      "componentType": 5126,
      "count": 48458,
      "max": [
        0.9999823570251465,
        0.9995632171630859
      ],
      "min": [
        0.00025888127856887877,
        0.006230950355529785
      ],
      "type": "VEC2"
    },
    {
      "bufferView": 2,
      "componentType": 5123,
      "count": 269136,
      "max": [
        48457
      ],
      "min": [
        0
      ],
      "type": "SCALAR"
    }
  ],
  "materials": [
    {
      "pbrMetallicRoughness": {
        "metallicFactor": 1,
        "roughnessFactor": 1,
        "metallicRoughnessTexture": {
          "index": 0,
          "texCoord": 0
        },
        "baseColorTexture": {
          "index": 1,
          "texCoord": 0
        }
      },
      "normalTexture": {
        "index": 2,
        "texCoord": 0
      },
      "name": "tripo_mat_a181202a-92e1-4513-941c-a50ab1b290df"
    }
  ],
  "textures": [
    {
      "sampler": 0,
      "source": 0,
      "name": "tripo_image_a181202a-92e1-4513-941c-a50ab1b290df_1"
    },
    {
      "sampler": 1,
      "source": 1,
      "name": "tripo_image_a181202a-92e1-4513-941c-a50ab1b290df_0"
    },
    {
      "sampler": 2,
      "source": 2,
      "name": "tripo_image_a181202a-92e1-4513-941c-a50ab1b290df_2"
    }
  ],
  "samplers": [
    {
      "magFilter": 9729,
      "minFilter": 9987,
      "wrapS": 10497,
      "wrapT": 10497
    },
    {
      "magFilter": 9729,
      "minFilter": 9987,
      "wrapS": 10497,
      "wrapT": 10497
    },
    {
      "magFilter": 9729,
      "minFilter": 9987,
      "wrapS": 10497,
      "wrapT": 10497
    }
  ],
  "images": [
    {
      "mimeType": "image/jpeg",
      "uri": "data:image/jpeg;base64,"
    },
    {
      "mimeType": "image/jpeg",
      "uri": "data:image/jpeg;base64,"
    },
    {
      "mimeType": "image/jpeg",
      "uri": "data:image/jpeg;base64,"
    }
  ],
  "meshes": [
    {
      "primitives": [
        {
          "mode": 4,
          "attributes": {
            "POSITION": 0,
            "TEXCOORD_0": 1
          },
          "indices": 2,
          "material": 0
        }
      ]
    }
  ]
}