{
  "asset": {
    "version": "2.0",
    "generator": "THREE.GLTFExporter r178"
  },
  "scenes": [
    {
      "name": "Scene",
      "nodes": [
        0
      ]
    }
  ],
  "scene": 0,
  "nodes": [
    {
      "matrix": [
        100,
        0,
        0,
        0,
        0,
        -42.3409003465232,
        -90.59386379797358,
        0,
        0,
        90.59386379797358,
        -42.3409003465232,
        0,
        0,
        12.144071647929174,
        0,
        1
      ],
      "name": "喉管.glb",
      "children": [
        1
      ]
    },
    {
      "name": "tripo_node_23e9c92a-23f3-4eb3-ac25-2e409f0d7098",
      "extras": {
        "name": "tripo_node_23e9c92a-23f3-4eb3-ac25-2e409f0d7098"
      },
      "mesh": 0
    }
  ],
  "bufferViews": [
    {
      "buffer": 0,
      "byteOffset": 0,
      "byteLength": 406740,
      "target": 34962,
      "byteStride": 12
    },
    {
      "buffer": 0,
      "byteOffset": 406740,
      "byteLength": 271160,
      "target": 34962,
      "byteStride": 8
    },
    {
      "buffer": 0,
      "byteOffset": 677900,
      "byteLength": 377448,
      "target": 34963
    }
  ],
  "buffers": [
    {
      "byteLength": 1055348,
      "uri": "data:application/octet-stream;base64,"
    }
  ],
  "accessors": [
    {
      "bufferView": 0,
      "componentType": 5126,
      "count": 33895,
      "max": [
        0.09095458686351776,
        0.5000162720680237,
        0.2732439637184143
      ],
      "min": [
        -0.09095458686351776,
        -0.5000051259994507,
        -0.2732527554035187
      ],
      "type": "VEC3"
    },
    {
      "bufferView": 1,
      "componentType": 5126,
      "count": 33895,
      "max": [
        0.9995983839035034,
        0.9998515844345093
      ],
      "min": [
        0.00006028229836374521,
        0.02481389045715332
      ],
      "type": "VEC2"
    },
    {
      "bufferView": 2,
      "componentType": 5123,
      "count": 188724,
      "max": [
        33894
      ],
      "min": [
        0
      ],
      "type": "SCALAR"
    }
  ],
  "materials": [
    {
      "pbrMetallicRoughness": {
        "metallicFactor": 1,
        "roughnessFactor": 1,
        "metallicRoughnessTexture": {
          "index": 0,
          "texCoord": 0
        },
        "baseColorTexture": {
          "index": 1,
          "texCoord": 0
        }
      },
      "normalTexture": {
        "index": 2,
        "texCoord": 0
      },
      "name": "tripo_mat_23e9c92a-23f3-4eb3-ac25-2e409f0d7098"
    }
  ],
  "textures": [
    {
      "sampler": 0,
      "source": 0,
      "name": "tripo_image_23e9c92a-23f3-4eb3-ac25-2e409f0d7098_1"
    },
    {
      "sampler": 1,
      "source": 1,
      "name": "tripo_image_23e9c92a-23f3-4eb3-ac25-2e409f0d7098_0"
    },
    {
      "sampler": 2,
      "source": 2,
      "name": "tripo_image_23e9c92a-23f3-4eb3-ac25-2e409f0d7098_2"
    }
  ],
  "samplers": [
    {
      "magFilter": 9729,
      "minFilter": 9987,
      "wrapS": 10497,
      "wrapT": 10497
    },
    {
      "magFilter": 9729,
      "minFilter": 9987,
      "wrapS": 10497,
      "wrapT": 10497
    },
    {
      "magFilter": 9729,
      "minFilter": 9987,
      "wrapS": 10497,
      "wrapT": 10497
    }
  ],
  "images": [
    {
      "mimeType": "image/jpeg",
      "uri": "data:image/jpeg;base64,"
    },
    {
      "mimeType": "image/jpeg",
      "uri": "data:image/jpeg;base64,"
    },
    {
      "mimeType": "image/jpeg",
      "uri": "data:image/jpeg;base64,"
    }
  ],
  "meshes": [
    {
      "primitives": [
        {
          "mode": 4,
          "attributes": {
            "POSITION": 0,
            "TEXCOORD_0": 1
          },
          "indices": 2,
          "material": 0
        }
      ]
    }
  ]
}