{
  "asset": {
    "version": "2.0",
    "generator": "THREE.GLTFExporter r178"
  },
  "scenes": [
    {
      "name": "Scene",
      "nodes": [
        0
      ]
    }
  ],
  "scene": 0,
  "nodes": [
    {
      "matrix": [
        -100,
        -1.0892209146604351e-14,
        5.597835132693201e-15,
        0,
        1.2246467991473534e-14,
        -88.94163732912978,
        45.70979270586942,
        0,
        6.162975822039155e-31,
        45.70979270586941,
        88.94163732912975,
        0,
        0,
        16,
        0,
        1
      ],
      "name": "大筒.glb",
      "children": [
        1
      ]
    },
    {
      "matrix": [
        -0.9999990957756364,
        0.0006146986422772379,
        0.0011960741992399673,
        0,
        -0.0006146986422766522,
        0.5821231590845855,
        -0.8131003934342683,
        0,
        -0.0011960741992402683,
        -0.8131003934342683,
        -0.5821222548602218,
        0,
        0,
        0,
        0,
        1
      ],
      "name": "tripo_node_0104894d-81bd-47dc-800e-92f0bce25c0c",
      "extras": {
        "name": "tripo_node_0104894d-81bd-47dc-800e-92f0bce25c0c"
      },
      "mesh": 0
    }
  ],
  "bufferViews": [
    {
      "buffer": 0,
      "byteOffset": 0,
      "byteLength": 544512,
      "target": 34962,
      "byteStride": 12
    },
    {
      "buffer": 0,
      "byteOffset": 544512,
      "byteLength": 363008,
      "target": 34962,
      "byteStride": 8
    },
    {
      "buffer": 0,
      "byteOffset": 907520,
      "byteLength": 509052,
      "target": 34963
    }
  ],
  "buffers": [
    {
      "byteLength": 1416572,
      "uri": "data:application/octet-stream;base64,"
    }
  ],
  "accessors": [
    {
      "bufferView": 0,
      "componentType": 5126,
      "count": 45376,
      "max": [
        0.07451870292425156,
        0.30226415395736694,
        0.4999963939189911
      ],
      "min": [
        -0.07451870292425156,
        -0.3022376596927643,
        -0.4999917149543762
      ],
      "type": "VEC3"
    },
    {
      "bufferView": 1,
      "componentType": 5126,
      "count": 45376,
      "max": [
        0.9969490766525269,
        0.9997655153274536
      ],
      "min": [
        0.0002952776849269867,
        0.0002918243408203125
      ],
      "type": "VEC2"
    },
    {
      "bufferView": 2,
      "componentType": 5123,
      "count": 254526,
      "max": [
        45375
      ],
      "min": [
        0
      ],
      "type": "SCALAR"
    }
  ],
  "materials": [
    {
      "pbrMetallicRoughness": {
        "metallicFactor": 1,
        "roughnessFactor": 1,
        "metallicRoughnessTexture": {
          "index": 0,
          "texCoord": 0
        },
        "baseColorTexture": {
          "index": 1,
          "texCoord": 0
        }
      },
      "normalTexture": {
        "index": 2,
        "texCoord": 0
      },
      "name": "tripo_mat_0104894d-81bd-47dc-800e-92f0bce25c0c"
    }
  ],
  "textures": [
    {
      "sampler": 0,
      "source": 0,
      "name": "tripo_image_0104894d-81bd-47dc-800e-92f0bce25c0c_1"
    },
    {
      "sampler": 1,
      "source": 1,
      "name": "tripo_image_0104894d-81bd-47dc-800e-92f0bce25c0c_0"
    },
    {
      "sampler": 2,
      "source": 2,
      "name": "tripo_image_0104894d-81bd-47dc-800e-92f0bce25c0c_2"
    }
  ],
  "samplers": [
    {
      "magFilter": 9729,
      "minFilter": 9987,
      "wrapS": 10497,
      "wrapT": 10497
    },
    {
      "magFilter": 9729,
      "minFilter": 9987,
      "wrapS": 10497,
      "wrapT": 10497
    },
    {
      "magFilter": 9729,
      "minFilter": 9987,
      "wrapS": 10497,
      "wrapT": 10497
    }
  ],
  "images": [
    {
      "mimeType": "image/jpeg",
      "uri": "data:image/jpeg;base64,"
    },
    {
      "mimeType": "image/jpeg",
      "uri": "data:image/jpeg;base64,"
    },
    {
      "mimeType": "image/jpeg",
      "uri": "data:image/jpeg;base64,"
    }
  ],
  "meshes": [
    {
      "primitives": [
        {
          "mode": 4,
          "attributes": {
            "POSITION": 0,
            "TEXCOORD_0": 1
          },
          "indices": 2,
          "material": 0
        }
      ]
    }
  ]
}