{
  "asset": {
    "version": "2.0",
    "generator": "THREE.GLTFExporter r178"
  },
  "scenes": [
    {
      "name": "Scene",
      "nodes": [
        0
      ]
    }
  ],
  "scene": 0,
  "nodes": [
    {
      "matrix": [
        100,
        0,
        0,
        0,
        0,
        2.220446049250313e-14,
        -100,
        0,
        0,
        100,
        2.220446049250313e-14,
        0,
        0,
        20.258661999380717,
        0,
        1
      ],
      "name": "牛角琴.glb",
      "children": [
        1
      ]
    },
    {
      "name": "tripo_node_046a4ebe-9f2a-4b69-ba22-16a1d6faf8fe",
      "extras": {
        "name": "tripo_node_046a4ebe-9f2a-4b69-ba22-16a1d6faf8fe"
      },
      "mesh": 0
    }
  ],
  "bufferViews": [
    {
      "buffer": 0,
      "byteOffset": 0,
      "byteLength": 595968,
      "target": 34962,
      "byteStride": 12
    },
    {
      "buffer": 0,
      "byteOffset": 595968,
      "byteLength": 397312,
      "target": 34962,
      "byteStride": 8
    },
    {
      "buffer": 0,
      "byteOffset": 993280,
      "byteLength": 537096,
      "target": 34963
    }
  ],
  "buffers": [
    {
      "byteLength": 1530376,
      "uri": "data:application/octet-stream;base64,"
    }
  ],
  "accessors": [
    {
      "bufferView": 0,
      "componentType": 5126,
      "count": 49664,
      "max": [
        0.1366569697856903,
        0.4999921917915344,
        0.17371192574501038
      ],
      "min": [
        -0.1366569697856903,
        -0.49998998641967773,
        -0.17371192574501038
      ],
      "type": "VEC3"
    },
    {
      "bufferView": 1,
      "componentType": 5126,
      "count": 49664,
      "max": [
        0.9935556650161743,
        0.9999969005584717
      ],
      "min": [
        0.00023265951313078403,
        0.00035643577575683594
      ],
      "type": "VEC2"
    },
    {
      "bufferView": 2,
      "componentType": 5123,
      "count": 268548,
      "max": [
        49663
      ],
      "min": [
        0
      ],
      "type": "SCALAR"
    }
  ],
  "materials": [
    {
      "pbrMetallicRoughness": {
        "metallicFactor": 1,
        "roughnessFactor": 1,
        "metallicRoughnessTexture": {
          "index": 0,
          "texCoord": 0
        },
        "baseColorTexture": {
          "index": 1,
          "texCoord": 0
        }
      },
      "normalTexture": {
        "index": 2,
        "texCoord": 0
      },
      "name": "tripo_mat_046a4ebe-9f2a-4b69-ba22-16a1d6faf8fe"
    }
  ],
  "textures": [
    {
      "sampler": 0,
      "source": 0,
      "name": "tripo_image_046a4ebe-9f2a-4b69-ba22-16a1d6faf8fe_1"
    },
    {
      "sampler": 1,
      "source": 1,
      "name": "tripo_image_046a4ebe-9f2a-4b69-ba22-16a1d6faf8fe_0"
    },
    {
      "sampler": 2,
      "source": 2,
      "name": "tripo_image_046a4ebe-9f2a-4b69-ba22-16a1d6faf8fe_2"
    }
  ],
  "samplers": [
    {
      "magFilter": 9729,
      "minFilter": 9987,
      "wrapS": 10497,
      "wrapT": 10497
    },
    {
      "magFilter": 9729,
      "minFilter": 9987,
      "wrapS": 10497,
      "wrapT": 10497
    },
    {
      "magFilter": 9729,
      "minFilter": 9987,
      "wrapS": 10497,
      "wrapT": 10497
    }
  ],
  "images": [
    {
      "mimeType": "image/jpeg",
      "uri": "data:image/jpeg;base64,"
    },
    {
      "mimeType": "image/jpeg",
      "uri": "data:image/jpeg;base64,"
    },
    {
      "mimeType": "image/jpeg",
      "uri": "data:image/jpeg;base64,"
    }
  ],
  "meshes": [
    {
      "primitives": [
        {
          "mode": 4,
          "attributes": {
            "POSITION": 0,
            "TEXCOORD_0": 1
          },
          "indices": 2,
          "material": 0
        }
      ]
    }
  ]
}