{
  "asset": {
    "version": "2.0",
    "generator": "THREE.GLTFExporter r178"
  },
  "scenes": [
    {
      "name": "Scene",
      "nodes": [
        0
      ]
    }
  ],
  "scene": 0,
  "nodes": [
    {
      "matrix": [
        100,
        0,
        0,
        0,
        0,
        100,
        0,
        0,
        0,
        0,
        100,
        0,
        0,
        0,
        0,
        1
      ],
      "name": "秦琴.glb",
      "children": [
        1
      ]
    },
    {
      "matrix": [
        -0.17293233785308937,
        0.9730738701757367,
        0.1523865141863891,
        0,
        0.0060389303078369205,
        0.15576215955707995,
        -0.9877761289739957,
        0,
        -0.9849151932249811,
        -0.16989818371992205,
        -0.03281263968762005,
        0,
        0,
        0.10566754807518844,
        0,
        1
      ],
      "name": "tripo_node_7bf4004b-036b-48c4-a887-16ec9f9887e5",
      "extras": {
        "name": "tripo_node_7bf4004b-036b-48c4-a887-16ec9f9887e5"
      },
      "mesh": 0
    }
  ],
  "bufferViews": [
    {
      "buffer": 0,
      "byteOffset": 0,
      "byteLength": 637020,
      "target": 34962,
      "byteStride": 12
    },
    {
      "buffer": 0,
      "byteOffset": 637020,
      "byteLength": 424680,
      "target": 34962,
      "byteStride": 8
    },
    {
      "buffer": 0,
      "byteOffset": 1061700,
      "byteLength": 585468,
      "target": 34963
    }
  ],
  "buffers": [
    {
      "byteLength": 1647168,
      "uri": "data:application/octet-stream;base64,"
    }
  ],
  "accessors": [
    {
      "bufferView": 0,
      "componentType": 5126,
      "count": 53085,
      "max": [
        0.14063885807991028,
        0.5000015497207642,
        0.155414417386055
      ],
      "min": [
        -0.14065049588680267,
        -0.4999954402446747,
        -0.15541864931583405
      ],
      "type": "VEC3"
    },
    {
      "bufferView": 1,
      "componentType": 5126,
      "count": 53085,
      "max": [
        0.9999057650566101,
        0.9998595118522644
      ],
      "min": [
        0.00001841410994529724,
        0.008365154266357422
      ],
      "type": "VEC2"
    },
    {
      "bufferView": 2,
      "componentType": 5123,
      "count": 292734,
      "max": [
        53084
      ],
      "min": [
        0
      ],
      "type": "SCALAR"
    }
  ],
  "materials": [
    {
      "pbrMetallicRoughness": {
        "metallicFactor": 1,
        "roughnessFactor": 1,
        "metallicRoughnessTexture": {
          "index": 0,
          "texCoord": 0
        },
        "baseColorTexture": {
          "index": 1,
          "texCoord": 0
        }
      },
      "normalTexture": {
        "index": 2,
        "texCoord": 0
      },
      "name": "tripo_mat_7bf4004b-036b-48c4-a887-16ec9f9887e5"
    }
  ],
  "textures": [
    {
      "sampler": 0,
      "source": 0,
      "name": "tripo_image_7bf4004b-036b-48c4-a887-16ec9f9887e5_1"
    },
    {
      "sampler": 1,
      "source": 1,
      "name": "tripo_image_7bf4004b-036b-48c4-a887-16ec9f9887e5_0"
    },
    {
      "sampler": 2,
      "source": 2,
      "name": "tripo_image_7bf4004b-036b-48c4-a887-16ec9f9887e5_2"
    }
  ],
  "samplers": [
    {
      "magFilter": 9729,
      "minFilter": 9987,
      "wrapS": 10497,
      "wrapT": 10497
    },
    {
      "magFilter": 9729,
      "minFilter": 9987,
      "wrapS": 10497,
      "wrapT": 10497
    },
    {
      "magFilter": 9729,
      "minFilter": 9987,
      "wrapS": 10497,
      "wrapT": 10497
    }
  ],
  "images": [
    {
      "mimeType": "image/jpeg",
      "uri": "data:image/jpeg;base64,"
    },
    {
      "mimeType": "image/jpeg",
      "uri": "data:image/jpeg;base64,"
    },
    {
      "mimeType": "image/jpeg",
      "uri": "data:image/jpeg;base64,"
    }
  ],
  "meshes": [
    {
      "primitives": [
        {
          "mode": 4,
          "attributes": {
            "POSITION": 0,
            "TEXCOORD_0": 1
          },
          "indices": 2,
          "material": 0
        }
      ]
    }
  ]
}